<svg xmlns="http://www.w3.org/2000/svg" xmlns:xlink="http://www.w3.org/1999/xlink" viewBox="0 0 1198.02 1066.39"><defs><linearGradient id="linear-gradient" x1="676.78" y1="377.54" x2="1198.02" y2="377.54" gradientUnits="userSpaceOnUse"><stop offset="0" stop-color="#ec1a3a"/><stop offset="0.18" stop-color="#e51a38"/><stop offset="0.44" stop-color="#d21b31"/><stop offset="0.76" stop-color="#b21d27"/><stop offset="0.88" stop-color="#a41e22"/></linearGradient><linearGradient id="linear-gradient-2" x1="676.78" y1="508.51" x2="1198.02" y2="508.51" xlink:href="#linear-gradient"/><linearGradient id="linear-gradient-3" x1="676.78" y1="639.48" x2="1198.02" y2="639.48" xlink:href="#linear-gradient"/><linearGradient id="linear-gradient-4" x1="676.78" y1="770.45" x2="1198.02" y2="770.45" xlink:href="#linear-gradient"/><linearGradient id="linear-gradient-5" x1="676.78" y1="233.97" x2="1198.02" y2="233.97" xlink:href="#linear-gradient"/><linearGradient id="linear-gradient-6" x1="676.78" y1="90.41" x2="1198.02" y2="90.41" xlink:href="#linear-gradient"/><linearGradient id="linear-gradient-7" x1="977.29" y1="373.21" x2="1498.52" y2="373.21" gradientTransform="matrix(-1, 0, 0, 1, 1619.12, 0)" xlink:href="#linear-gradient"/><linearGradient id="linear-gradient-8" x1="977.29" y1="504.18" x2="1498.52" y2="504.18" gradientTransform="matrix(-1, 0, 0, 1, 1619.12, 0)" xlink:href="#linear-gradient"/><linearGradient id="linear-gradient-9" x1="977.29" y1="635.16" x2="1498.52" y2="635.16" gradientTransform="matrix(-1, 0, 0, 1, 1619.12, 0)" xlink:href="#linear-gradient"/><linearGradient id="linear-gradient-10" x1="977.29" y1="766.13" x2="1498.52" y2="766.13" gradientTransform="matrix(-1, 0, 0, 1, 1619.12, 0)" xlink:href="#linear-gradient"/><linearGradient id="linear-gradient-11" x1="977.29" y1="229.65" x2="1498.52" y2="229.65" gradientTransform="matrix(-1, 0, 0, 1, 1619.12, 0)" xlink:href="#linear-gradient"/><linearGradient id="linear-gradient-12" x1="537.95" y1="964.42" x2="876.58" y2="964.42" gradientTransform="matrix(-1, 0, 0, 1, 1553.36, 0)" xlink:href="#linear-gradient"/><linearGradient id="linear-gradient-13" x1="537.95" y1="821.29" x2="876.52" y2="821.29" gradientTransform="matrix(-1, 0, 0, 1, 1553.36, 0)" xlink:href="#linear-gradient"/><linearGradient id="linear-gradient-14" x1="669.48" y1="990.26" x2="745.05" y2="990.26" gradientTransform="matrix(-1, 0, 0, 1, 1553.36, 0)" xlink:href="#linear-gradient"/><linearGradient id="linear-gradient-15" x1="357.03" y1="1008.32" x2="537.95" y2="1008.32" gradientTransform="matrix(-1, 0, 0, 1, 1553.36, 0)" xlink:href="#linear-gradient"/><linearGradient id="linear-gradient-16" x1="357.03" y1="931.85" x2="537.91" y2="931.85" gradientTransform="matrix(-1, 0, 0, 1, 1553.36, 0)" xlink:href="#linear-gradient"/><linearGradient id="linear-gradient-17" x1="427.3" y1="1022.13" x2="467.68" y2="1022.13" gradientTransform="matrix(-1, 0, 0, 1, 1553.36, 0)" xlink:href="#linear-gradient"/><linearGradient id="linear-gradient-18" x1="911.54" y1="962.45" x2="1432.77" y2="962.45" gradientTransform="matrix(-1, 0, 0, 1, 1553.36, 0)" xlink:href="#linear-gradient"/><linearGradient id="linear-gradient-19" x1="911.54" y1="819.32" x2="1432.77" y2="819.32" gradientTransform="matrix(-1, 0, 0, 1, 1553.36, 0)" xlink:href="#linear-gradient"/><linearGradient id="linear-gradient-20" x1="144.57" y1="990.9" x2="440.76" y2="990.9" xlink:href="#linear-gradient"/><linearGradient id="linear-gradient-21" x1="159.22" y1="950.33" x2="426.12" y2="950.33" xlink:href="#linear-gradient"/><linearGradient id="linear-gradient-22" x1="159.22" y1="950.33" x2="426.12" y2="950.33" gradientUnits="userSpaceOnUse"><stop offset="0" stop-color="#efdec2"/><stop offset="0.28" stop-color="#f0dcbc"/><stop offset="0.64" stop-color="#f2d8ac"/><stop offset="1" stop-color="#f5d295"/></linearGradient><linearGradient id="linear-gradient-23" x1="495.56" y1="990.9" x2="581.86" y2="990.9" xlink:href="#linear-gradient"/></defs><g style="isolation:isolate"><g id="Layer_2" data-name="Layer 2"><g id="Layer_1-2" data-name="Layer 1"><polygon points="841.46 287.13 676.78 382.21 676.78 448.48 841.46 353.38 1198.02 467.95 1198.02 408.5 841.46 287.13" style="fill-rule:evenodd;fill:url(#linear-gradient)"/><polygon points="841.46 418.1 676.78 513.18 676.78 579.45 841.46 484.35 1198.02 598.92 1198.02 539.47 841.46 418.1" style="fill-rule:evenodd;fill:url(#linear-gradient-2)"/><polygon points="841.46 549.07 676.78 644.15 676.78 710.42 841.46 615.32 1198.02 729.89 1198.02 670.44 841.46 549.07" style="fill-rule:evenodd;fill:url(#linear-gradient-3)"/><polygon points="841.46 680.04 676.78 775.12 676.78 841.39 841.46 746.29 1198.02 860.86 1198.02 801.41 841.46 680.04" style="fill-rule:evenodd;fill:url(#linear-gradient-4)"/><polygon points="841.46 143.56 676.78 238.65 676.78 304.91 841.46 209.82 1198.02 324.38 1198.02 264.93 841.46 143.56" style="fill-rule:evenodd;fill:url(#linear-gradient-5)"/><polygon points="841.46 0 676.78 95.08 676.78 161.34 841.46 66.25 1198.02 180.82 1198.02 121.37 841.46 0" style="fill-rule:evenodd;fill:url(#linear-gradient-6)"/><polygon points="477.15 282.81 641.83 377.89 641.83 444.15 477.15 349.06 120.6 463.62 120.6 404.18 477.15 282.81" style="fill-rule:evenodd;fill:url(#linear-gradient-7)"/><polygon points="477.15 413.78 641.83 508.86 641.83 575.12 477.15 480.03 120.6 594.59 120.6 535.14 477.15 413.78" style="fill-rule:evenodd;fill:url(#linear-gradient-8)"/><polygon points="477.15 544.75 641.83 639.83 641.83 706.09 477.15 611 120.6 725.56 120.6 666.12 477.15 544.75" style="fill-rule:evenodd;fill:url(#linear-gradient-9)"/><polygon points="477.15 675.72 641.83 770.8 641.83 837.06 477.15 741.97 120.6 856.53 120.6 797.09 477.15 675.72" style="fill-rule:evenodd;fill:url(#linear-gradient-10)"/><polygon points="477.15 139.24 641.83 234.32 641.83 300.59 477.15 205.49 120.6 320.06 120.6 260.61 477.15 139.24" style="fill-rule:evenodd;fill:url(#linear-gradient-11)"/><rect x="676.78" y="870.16" width="338.63" height="188.52" style="fill:url(#linear-gradient-12)"/><polygon points="846.13 772.42 1015.42 870.16 846.13 870.16 676.85 870.16 846.13 772.42" style="fill:url(#linear-gradient-13)"/><rect x="808.31" y="921.85" width="75.57" height="136.83" style="fill:url(#linear-gradient-14)"/><rect x="1015.42" y="957.96" width="180.92" height="100.72" style="fill:url(#linear-gradient-15)"/><polygon points="1105.89 905.74 1196.33 957.96 1105.89 957.96 1015.45 957.96 1105.89 905.74" style="fill:url(#linear-gradient-16)"/><rect x="1085.69" y="985.57" width="40.37" height="73.1" style="fill:url(#linear-gradient-17)"/><rect x="120.6" y="868.19" width="521.23" height="188.52" style="fill:url(#linear-gradient-18)"/><polygon points="472.55 770.45 641.83 868.19 472.55 868.19 120.6 868.19 472.55 770.45" style="fill:url(#linear-gradient-19)"/><rect x="144.57" y="925.1" width="296.19" height="131.6" style="fill:url(#linear-gradient-20)"/><path d="M440.76,925.1H144.57v131.6h11.56c.11-12.93,1-45.64,1.27-55.12.58-20.39,5.91-42.64,22.44-54.58,12.4-9,28.57-10.28,43.85-11.08,72.27-3.77,144.7-2.56,217.07-1Z" style="fill:#a41e22"/><path d="M147.49,1056.7s-4.1-96.17,1.58-127.71c0,0,223.26-5,287.91,0,0,0,3.47,56.76,0,127.71h3.78V925.1H144.57v131.6Z" style="fill:#89161f"/><path d="M155.93,935.61v29.44H429.41V935.61Zm270.19,26.14H159.22V938.91h266.9Z" style="fill:#876043;mix-blend-mode:multiply;opacity:0.5"/><rect x="159.22" y="938.91" width="266.89" height="22.85" style="fill:url(#linear-gradient-21)"/><polygon points="279.94 938.91 170.83 961.75 255.65 961.75 294.44 938.91 279.94 938.91" style="fill:#fff;mix-blend-mode:screen;opacity:0.30000000000000004"/><polygon points="297.6 938.91 261.01 961.75 298.91 961.75 312.73 938.91 297.6 938.91" style="fill:#fff;mix-blend-mode:screen;opacity:0.30000000000000004"/><path d="M426.12,938.91H159.22v22.84h3.7a29.35,29.35,0,0,1-.12-5,14.07,14.07,0,0,1,4-8.56c2.62-2.43,6.28-3.36,9.81-3.9,15.1-2.33,31.15-.94,46.39-1l105.11-.49,98-.46Z" style="mix-blend-mode:multiply;opacity:0.5;fill:url(#linear-gradient-22)"/><rect x="495.56" y="925.1" width="86.29" height="131.6" style="fill:url(#linear-gradient-23)"/><path d="M581.86,925.1h-86.3v131.6h3.37c0-12.93.29-45.64.37-55.12.17-20.39,1.72-42.64,6.54-54.58,3.61-9,8.32-10.28,12.77-11.08,21.06-3.77,42.16-2.56,63.25-1Z" style="fill:#a41e22"/><path d="M496.41,1056.7s-1.19-96.17.46-127.71c0,0,65-5,83.88,0,0,0,1,56.76,0,127.71h1.11V925.1h-86.3v131.6Z" style="fill:#876043;mix-blend-mode:multiply;opacity:0.5"/><path d="M79.05,1066.39l-15-6.76a50.58,50.58,0,0,0,9-28.4c0-11.8-3.94-16.6-9.22-16.6-16.11,0-5,50-37,50-14.63,0-26.8-11.8-26.8-36.27,0-10.82,2.58-21.88,7.62-29.87l15.12,6.15A48.56,48.56,0,0,0,16,1028.53c0,11.8,4.43,16.35,9.84,16.35,15.86,0,4.91-50,36.51-50,14.38,0,26.68,11.93,26.68,36.51C89,1045,85,1058.77,79.05,1066.39Z" style="fill:#a41e22"/><path d="M32.7,906.57c19.18,0,31.11,14.39,31.11,37.38v17.33H87.53V981.2h-86V944C1.48,921,13.4,906.57,32.7,906.57Zm0,20.17c-9.46,0-15,6.14-15,18.31v16.23H47.58V945.05C47.58,932.88,42.05,926.74,32.7,926.74Z" style="fill:#a41e22"/><path d="M69.09,840.06v40l18.44,7.62v20.41l-86-38.36V850l86.05-38.48v20.9ZM54,846.33,21,860l33,13.64Z" style="fill:#a41e22"/><path d="M17.7,789v27.54H1.48v-75H17.7v27.54H87.53V789Z" style="fill:#a41e22"/><path d="M1.48,730.89V711H87.53v19.91Z" style="fill:#a41e22"/><path d="M49.67,691.31H1.48V671.39H48.93c16.35,0,23.11-7.13,23.11-19.18S65.28,633,48.93,633H1.48V613.36H49.67c25.32,0,39.34,14.51,39.34,39S75,691.31,49.67,691.31Z" style="fill:#a41e22"/><path d="M1.48,593.69V573.78H71.31V530.62H87.53v63.07Z" style="fill:#a41e22"/><path d="M17.7,466.82v27.54H1.48v-75H17.7V446.9H87.53v19.92Z" style="fill:#a41e22"/><path d="M69.09,356.3v39.95l18.44,7.62v20.41l-86-38.36V366.26l86.05-38.49v20.9ZM54,362.57,21,376.21l33,13.65Z" style="fill:#a41e22"/><path d="M49.67,321.38H1.48V301.47H48.93c16.35,0,23.11-7.13,23.11-19.18s-6.76-19.18-23.11-19.18H1.48V243.44H49.67C75,243.44,89,258,89,282.41S75,321.38,49.67,321.38Z" style="fill:#a41e22"/></g></g></g></svg>